<?xml version="1.0" standalone="no"?>
<!DOCTYPE svg PUBLIC "-//W3C//DTD SVG 20010904//EN"
 "http://www.w3.org/TR/2001/REC-SVG-20010904/DTD/svg10.dtd">
<svg version="1.0" xmlns="http://www.w3.org/2000/svg"
 width="150.000000pt" height="150.000000pt" viewBox="0 0 150.000000 150.000000"
 preserveAspectRatio="xMidYMid meet">

<g transform="translate(0.000000,150.000000) scale(0.100000,-0.100000)"
fill="#000000" stroke="none">
<path d="M79 1493 c-1 -5 -2 -12 -4 -18 -1 -5 -3 -17 -3 -25 -2 -12 -11 -15
-37 -12 -34 4 -35 3 -35 -31 0 -19 6 -37 13 -40 9 -3 9 -7 0 -18 -9 -11 -12
-80 -12 -247 0 -211 2 -232 17 -232 16 -1 16 -1 -1 -11 -9 -5 -17 -17 -17 -25
0 -8 4 -12 10 -9 12 8 50 -12 50 -26 0 -7 -12 -9 -30 -7 -30 4 -30 4 -30 -43
0 -43 2 -47 22 -41 14 3 19 2 14 -6 -4 -7 -14 -12 -22 -12 -8 0 -14 -4 -14 -9
0 -18 18 -21 47 -9 15 6 33 10 38 9 6 0 2 5 -7 12 -21 17 -24 49 -4 41 7 -3
18 -16 24 -30 7 -13 18 -24 26 -24 8 0 24 -12 35 -27 25 -31 35 -26 21 11 -5
15 -10 35 -9 44 1 9 6 0 11 -21 7 -28 14 -37 25 -33 11 4 13 2 9 -9 -3 -8 -1
-15 4 -15 5 0 17 25 26 55 10 30 21 55 26 55 10 0 10 -7 -1 -28 -15 -29 -22
-72 -12 -72 5 0 13 9 16 20 4 13 15 20 31 20 25 0 34 24 12 34 -9 3 -7 10 7
23 11 10 21 29 23 43 3 24 2 24 -12 5 -9 -11 -16 -24 -16 -30 0 -5 -10 -21
-21 -35 l-20 -25 15 38 c11 27 12 37 3 37 -7 0 -4 6 6 14 9 7 17 23 17 34 0
11 5 24 10 27 6 3 10 -4 10 -17 l0 -22 16 22 c8 12 22 22 30 22 8 0 14 5 14
10 0 7 -6 7 -19 0 -27 -14 -31 -13 -24 6 4 12 0 15 -18 12 -16 -2 -25 -11 -27
-25 -2 -13 -7 -23 -11 -23 -5 0 -6 11 -3 25 3 20 0 25 -15 25 -15 0 -21 -12
-31 -58 -7 -32 -12 -71 -12 -88 0 -16 -5 -36 -11 -44 -8 -11 -9 -6 -5 20 18
120 18 133 7 126 -12 -8 -13 10 -2 59 6 30 29 41 43 21 8 -12 68 -17 68 -6 0
4 15 12 33 18 28 9 23 10 -48 12 -72 2 -158 16 -112 19 9 1 17 5 17 9 0 5 81
10 180 11 l180 2 0 -35 c0 -20 -4 -36 -10 -36 -5 0 -10 7 -10 15 0 20 -16 19
-24 -1 -6 -15 -8 -15 -24 -2 -25 22 -50 29 -79 22 -18 -5 -21 -9 -11 -15 10
-7 10 -9 -2 -10 -29 -1 -53 -8 -61 -16 -4 -4 40 -8 99 -7 l107 0 42 -35 c23
-20 43 -45 43 -56 0 -15 2 -17 9 -6 5 7 14 10 20 7 14 -9 15 -36 1 -36 -5 0
-10 -7 -10 -15 0 -8 4 -15 9 -15 5 0 16 -3 24 -6 12 -4 16 3 19 28 3 31 5 29
41 -46 21 -43 36 -84 34 -90 -2 -6 14 -23 37 -38 l40 -27 34 19 c18 11 40 20
48 20 8 0 14 4 14 10 0 5 37 49 83 97 45 49 93 103 106 121 l23 33 -27 64
c-14 35 -41 81 -60 102 -30 35 -37 38 -86 38 -59 0 -78 13 -79 55 -1 24 -1 24
-15 6 -15 -19 -15 -19 -15 2 0 18 -6 22 -30 22 -24 0 -34 8 -54 43 -38 63
-159 177 -201 188 -58 16 -89 4 -113 -45 -12 -24 -22 -54 -22 -66 0 -30 21
-90 32 -90 16 0 7 -30 -12 -42 -13 -9 -20 -23 -19 -43 1 -17 3 -22 6 -12 2 9
9 17 14 17 6 0 8 4 5 8 -2 4 -1 14 4 22 13 21 32 -58 19 -81 -11 -21 -30 -24
-45 -9 -7 7 -25 5 -56 -5 -25 -9 -58 -14 -74 -11 -16 2 -67 5 -114 6 -59 1
-77 4 -60 10 17 5 19 8 7 9 -9 1 -16 7 -15 14 2 6 -3 11 -9 9 -27 -5 -11 30
17 39 17 6 30 15 30 20 0 5 6 9 14 9 20 0 30 18 18 33 -13 15 11 52 27 42 7
-4 8 0 5 10 -6 14 -8 14 -25 -1 -18 -16 -19 -16 -19 14 0 17 5 34 10 37 12 7
13 74 2 92 -5 8 -13 9 -22 3 -22 -14 -30 -12 -30 8 0 24 37 59 72 67 35 9 55
-3 33 -19 -13 -9 -10 -11 17 -11 l33 0 0 -55 c0 -49 2 -55 23 -58 30 -5 38 21
18 62 -9 19 -16 47 -16 64 0 36 -25 61 -42 44 -17 -17 -25 -15 -31 8 -5 18
-14 20 -116 20 -61 0 -112 -3 -112 -7z m98 -87 c-10 -19 -11 -20 -15 -3 -2 10
-1 26 3 35 5 14 8 14 15 2 5 -8 4 -22 -3 -34z m467 -101 c26 -19 42 -19 26 0
-22 26 4 16 35 -13 44 -41 62 -66 58 -79 -2 -6 1 -14 6 -18 35 -21 -12 -112
-59 -116 -30 -3 -70 9 -70 21 0 5 -7 6 -17 3 -11 -4 -14 -3 -9 5 4 7 3 12 -3
12 -14 0 -61 96 -61 124 0 29 36 76 58 76 9 0 26 -7 36 -15z m-593 -129 c-7
-9 -5 -20 5 -35 14 -19 14 -27 3 -49 l-13 -27 -7 45 c-12 73 -11 90 6 84 11
-5 12 -10 6 -18z m738 -73 c-5 -27 19 -80 52 -116 22 -22 39 -48 38 -57 0 -14
-73 -80 -88 -80 -3 0 -13 6 -21 13 -59 47 -82 132 -37 139 17 2 23 11 27 43 5
38 16 65 26 65 2 0 3 -3 3 -7z m-291 -100 c-54 -2 -142 -2 -196 0 -53 1 -9 3
98 3 107 0 151 -2 98 -3z m2 -83 c0 -5 -4 -10 -10 -10 -5 0 -10 5 -10 10 0 6
5 10 10 10 6 0 10 -4 10 -10z m226 -83 l4 -30 -20 25 c-12 16 -17 33 -13 48 5
20 7 21 16 4 6 -10 12 -31 13 -47z m-589 -14 c3 -7 -3 -9 -16 -6 -12 3 -27 0
-34 -6 -18 -14 -30 -2 -15 16 13 16 60 14 65 -4z m153 -17 c0 -2 -7 -17 -15
-32 -16 -30 -19 -25 -9 14 5 18 24 33 24 18z m-122 -61 c0 -16 -2 -15 -8 5
-11 34 -11 60 0 35 5 -11 8 -29 8 -40z m660 -80 c14 -31 15 -35 4 -35 -8 0
-32 43 -32 55 0 15 19 1 28 -20z"/>
<path d="M672 1278 c-16 -16 -15 -58 1 -58 6 1 22 6 34 13 21 12 22 14 7 35
-17 25 -25 27 -42 10z"/>
<path d="M594 1204 c-15 -6 -6 -44 10 -44 15 0 46 36 39 44 -7 7 -33 7 -49 0z"/>
<path d="M700 1140 c-14 -10 -22 -21 -19 -24 3 -4 16 3 29 14 13 11 21 22 19
24 -2 3 -15 -4 -29 -14z"/>
<path d="M430 1491 c0 -5 7 -14 15 -21 8 -7 15 -18 15 -25 0 -7 7 -15 15 -19
8 -3 15 -17 15 -31 0 -14 5 -25 10 -25 6 0 10 4 10 9 0 5 13 14 29 19 20 7 30
18 33 39 3 15 9 36 13 46 6 15 -1 17 -74 17 -45 0 -81 -4 -81 -9z"/>
<path d="M667 1473 c-11 -67 -3 -91 43 -133 24 -22 47 -40 50 -40 22 1 31 26
36 108 l7 92 -66 0 c-64 0 -66 -1 -70 -27z"/>
<path d="M1201 1484 c0 -11 3 -14 6 -6 3 7 2 16 -1 19 -3 4 -6 -2 -5 -13z"/>
<path d="M1343 1480 c-3 -11 -9 -17 -14 -14 -14 8 -5 -108 11 -136 12 -24 12
-24 -5 -10 -16 14 -17 13 -11 -18 7 -28 5 -32 -13 -32 -27 0 -27 -12 0 -36 21
-19 21 -19 18 1 -3 14 2 21 19 23 15 2 22 -2 22 -12 0 -9 -4 -16 -10 -16 -5 0
-10 -7 -10 -15 0 -8 6 -14 13 -12 7 1 13 -10 15 -25 2 -16 9 -28 18 -28 8 0
14 -7 14 -15 0 -13 9 -23 70 -77 19 -17 20 -17 20 5 0 14 -14 36 -35 54 -33
30 -40 45 -36 86 1 9 -2 17 -6 17 -5 0 -9 16 -9 36 0 28 -7 42 -31 63 -22 18
-33 38 -38 68 -7 42 0 84 13 81 12 -2 42 14 42 23 0 5 -12 9 -26 9 -17 0 -28
-6 -31 -20z m31 -196 c3 -8 2 -12 -4 -9 -6 3 -10 10 -10 16 0 14 7 11 14 -7z"/>
<path d="M1415 1490 c-3 -6 1 -7 9 -4 18 7 21 14 7 14 -6 0 -13 -4 -16 -10z"/>
<path d="M1197 1378 c-2 -18 -1 -42 4 -53 5 -14 8 -4 8 33 1 59 -4 68 -12 20z"/>
<path d="M1487 1366 c-4 -10 -5 -21 -2 -24 9 -9 17 6 13 25 -3 17 -4 17 -11
-1z"/>
<path d="M1492 1310 c0 -14 2 -19 5 -12 2 6 2 18 0 25 -3 6 -5 1 -5 -13z"/>
<path d="M295 1250 c3 -5 8 -10 11 -10 2 0 4 5 4 10 0 6 -5 10 -11 10 -5 0 -7
-4 -4 -10z"/>
<path d="M1215 1220 c7 -34 52 -106 62 -97 4 5 -36 89 -57 117 -9 11 -10 7 -5
-20z"/>
<path d="M1320 1207 c0 -5 12 -25 26 -45 21 -30 24 -32 19 -12 -7 24 -45 72
-45 57z"/>
<path d="M1130 1160 c-7 -14 -17 -27 -21 -31 -5 -3 7 -5 26 -6 29 -1 33 2 26
15 -4 10 -10 24 -13 32 -3 11 -8 9 -18 -10z"/>
<path d="M1191 1163 c-1 -14 5 -23 14 -23 18 0 19 -14 3 -32 -7 -7 -13 -19
-13 -27 0 -8 -7 -16 -15 -18 -13 -4 -13 -3 0 6 13 10 13 12 0 20 -9 6 -19 6
-26 0 -6 -5 -20 -6 -30 -2 -11 3 -3 -7 16 -23 45 -38 110 -107 110 -117 0 -5
5 -5 12 -1 7 4 8 3 4 -5 -4 -6 4 -31 18 -56 14 -24 26 -48 26 -55 0 -15 -116
-131 -123 -123 -4 3 -7 0 -7 -8 -1 -8 -21 -30 -47 -49 -47 -36 -60 -48 -103
-96 -14 -15 -19 -24 -12 -20 16 9 76 -10 93 -30 18 -22 4 -28 -25 -8 -39 25
-44 9 -7 -21 44 -38 39 -50 -9 -20 -48 30 -59 32 -35 5 18 -20 18 -21 -1 -14
-17 6 -16 4 5 -19 l23 -26 -46 22 c-25 11 -46 28 -46 36 -1 14 -3 13 -14 -1
-7 -10 -16 -15 -19 -11 -4 3 -17 6 -29 7 -20 1 -23 5 -20 36 2 19 11 44 20 54
17 19 16 19 -15 1 -18 -11 -33 -23 -33 -28 0 -4 5 -5 10 -2 13 8 13 -6 -1 -25
-8 -13 -12 -12 -26 7 -8 13 -21 23 -28 23 -20 0 -85 62 -112 107 -28 48 -31
51 -29 26 1 -13 -14 -19 -72 -29 -91 -16 -105 -20 -136 -45 -21 -17 -26 -29
-26 -65 0 -24 -4 -44 -9 -44 -5 0 -11 -9 -14 -20 -6 -23 15 -32 79 -32 50 0
50 0 58 -76 3 -40 1 -55 -9 -59 -12 -4 -12 -7 0 -20 8 -8 15 -21 15 -29 0 -12
50 -21 84 -15 5 1 12 -3 16 -9 4 -7 27 -4 69 10 35 11 68 20 73 20 15 0 78 31
78 39 0 3 -20 6 -44 6 -51 -1 -49 7 17 65 22 19 43 45 49 59 l10 26 12 -23 c7
-13 23 -29 37 -36 15 -8 23 -19 21 -32 -4 -25 -51 -67 -68 -60 -14 5 -30 -11
-21 -21 3 -2 26 -7 52 -9 25 -3 78 -11 116 -19 91 -19 89 -20 89 15 0 25 4 30
25 30 21 0 25 -5 25 -30 0 -24 -4 -30 -22 -31 -13 0 11 -7 51 -14 41 -8 79
-11 84 -8 4 3 42 5 83 5 41 0 74 3 74 7 0 5 -36 11 -80 15 -84 7 -110 13 -110
26 0 11 142 18 154 8 18 -15 25 -8 21 19 -2 16 -4 30 -4 33 -1 7 -51 11 -51 5
0 -3 10 -10 23 -15 20 -8 20 -9 -9 -9 -20 -1 -37 7 -51 23 -11 13 -26 25 -32
27 -7 3 -9 12 -6 21 7 17 39 19 63 4 7 -4 12 -4 12 1 -1 20 -17 31 -123 79
l-37 17 31 23 c33 24 37 24 98 -14 3 -1 -4 -8 -14 -16 -18 -13 -18 -14 1 -19
10 -4 47 -6 82 -6 l62 1 0 263 c0 231 -2 264 -15 259 -9 -4 -15 0 -15 9 0 15
-20 27 -46 27 -19 0 -35 -42 -20 -52 6 -5 2 -8 -11 -8 -37 0 -103 79 -103 123
0 14 -8 33 -17 43 -10 9 -28 31 -40 48 -14 17 -23 24 -24 15 0 -8 -4 -6 -9 6
-8 19 -9 19 -9 -2z m199 -549 c0 -2 -9 -4 -20 -4 -11 0 -20 4 -20 9 0 5 9 7
20 4 11 -3 20 -7 20 -9z m-30 -57 c0 -15 -6 -23 -19 -24 -18 -2 -19 1 -9 23
14 30 28 31 28 1z m100 -97 c12 -8 12 -10 -5 -10 -11 0 -27 5 -35 10 -12 8
-12 10 5 10 11 0 27 -5 35 -10z m-290 -80 c0 -5 -5 -10 -11 -10 -5 0 -7 5 -4
10 3 6 8 10 11 10 2 0 4 -4 4 -10z m-455 -70 c6 0 3 -5 -5 -10 -9 -5 -35 -4
-65 2 -38 8 -45 12 -30 18 11 4 35 3 55 -1 19 -5 40 -9 45 -9z m623 1 c3 -8
-1 -12 -9 -9 -7 2 -15 10 -17 17 -3 8 1 12 9 9 7 -2 15 -10 17 -17z m-93 -51
c3 -5 1 -10 -4 -10 -6 0 -11 5 -11 10 0 6 2 10 4 10 3 0 8 -4 11 -10z"/>
<path d="M487 858 c-21 -22 -21 -23 13 -31 22 -5 25 -3 27 23 3 35 -13 38 -40
8z"/>
<path d="M552 829 c2 -30 8 -53 13 -51 15 3 12 95 -3 100 -10 3 -12 -9 -10
-49z"/>
<path d="M477 773 c-29 -8 -17 -45 15 -49 32 -3 39 4 31 34 -5 22 -12 24 -46
15z"/>
<path d="M584 732 c-6 -4 -14 -17 -18 -29 -6 -18 -3 -23 9 -23 12 0 15 5 11
16 -4 9 -1 23 5 30 13 15 10 18 -7 6z"/>
<path d="M326 645 c-8 -8 -24 -15 -35 -15 -12 0 -21 -5 -21 -11 0 -7 27 -9 88
-4 90 8 121 15 61 15 -19 0 -44 7 -56 15 -19 13 -23 13 -37 0z"/>
<path d="M0 612 l0 -37 43 0 c23 0 51 6 62 12 19 12 18 12 -9 13 -16 0 -26 3
-22 8 8 7 13 8 42 11 8 0 12 6 9 11 -3 6 -17 8 -31 6 -13 -3 -24 0 -24 5 0 5
-16 9 -35 9 -34 0 -35 -1 -35 -38z"/>
<path d="M250 486 c0 -44 -17 -56 -30 -22 -8 21 -16 26 -46 26 -29 0 -35 -3
-30 -16 3 -9 9 -27 12 -40 5 -21 12 -24 49 -24 35 0 46 5 69 32 14 17 26 37
26 44 0 7 6 15 13 18 6 3 0 4 -15 2 -16 -2 -28 1 -28 5 0 5 -4 9 -10 9 -5 0
-10 -15 -10 -34z"/>
<path d="M977 503 c-4 -3 -7 -11 -7 -17 0 -6 5 -5 12 2 6 6 9 14 7 17 -3 3 -9
2 -12 -2z"/>
<path d="M349 426 c14 -15 26 -26 28 -26 9 0 -24 40 -37 45 -8 4 -4 -5 9 -19z"/>
<path d="M295 410 c-3 -5 1 -10 10 -10 9 0 13 5 10 10 -3 6 -8 10 -10 10 -2 0
-7 -4 -10 -10z"/>
<path d="M236 393 c-7 -8 13 -33 26 -33 5 0 6 5 3 10 -3 6 -1 10 4 10 6 0 11
-9 11 -20 0 -13 -7 -20 -20 -20 -11 0 -20 -5 -20 -10 0 -6 -10 -15 -22 -21
-21 -9 -21 -9 4 -4 26 5 27 3 30 -38 l3 -44 35 14 c30 11 31 13 7 9 -39 -5
-45 13 -8 27 33 12 39 24 17 33 -10 4 -13 15 -9 38 5 30 2 34 -25 44 -17 6
-33 8 -36 5z"/>
<path d="M398 388 c9 -9 15 -9 24 0 9 9 7 12 -12 12 -19 0 -21 -3 -12 -12z"/>
<path d="M7 373 c-4 -3 -7 -15 -7 -25 0 -14 8 -18 33 -18 23 0 34 -5 34 -15 0
-10 -11 -15 -34 -15 -29 0 -33 -3 -33 -26 l0 -27 67 7 c37 4 68 8 70 9 1 2 -1
28 -4 60 l-6 57 -57 0 c-31 0 -60 -3 -63 -7z m93 -83 c0 -5 -5 -10 -11 -10 -5
0 -7 5 -4 10 3 6 8 10 11 10 2 0 4 -4 4 -10z"/>
<path d="M350 355 c7 -8 17 -15 22 -15 6 0 5 7 -2 15 -7 8 -17 15 -22 15 -6 0
-5 -7 2 -15z"/>
<path d="M415 350 c-19 -8 -19 -9 3 -9 12 -1 22 4 22 9 0 6 -1 10 -2 9 -2 0
-12 -4 -23 -9z"/>
<path d="M1470 330 c-8 -5 -10 -10 -5 -10 6 0 17 5 25 10 8 5 11 10 5 10 -5 0
-17 -5 -25 -10z"/>
<path d="M413 232 c-35 -15 -63 -31 -63 -36 0 -4 26 -5 58 -1 93 11 102 15
102 41 0 31 -17 30 -97 -4z"/>
<path d="M230 190 c-9 -6 -10 -10 -3 -10 6 0 15 5 18 10 8 12 4 12 -15 0z"/>
<path d="M150 119 c-76 -26 -150 -61 -150 -70 0 -5 7 -6 15 -3 9 4 19 -3 26
-20 11 -23 18 -26 59 -26 30 0 52 6 60 15 10 12 10 15 -1 15 -7 0 2 13 21 30
19 16 47 29 61 30 25 0 75 29 52 30 -6 0 -14 -4 -17 -8 -3 -5 -31 -9 -63 -9
-50 0 -53 0 -19 6 32 5 37 8 25 18 -11 9 -26 7 -69 -8z"/>
<path d="M215 40 c-19 -8 -19 -9 2 -9 12 -1 25 4 28 9 7 12 -2 12 -30 0z"/>
</g>
</svg>
